<svg xmlns="http://www.w3.org/2000/svg" viewBox="0 0 750 1334"><defs><style>.cls-1{fill:#42b3ff;}.cls-2{opacity:0.5;}.cls-3{fill:#fff;}.cls-4{fill:none;stroke:#fff;stroke-miterlimit:10;}</style></defs><g id="Layer_2" data-name="Layer 2"><g id="Login"><rect id="BG" class="cls-1" width="750" height="1334"/><g id="bond_illu"><g class="cls-2"><circle class="cls-3" cx="299" cy="284" r="30"/><circle class="cls-3" cx="420" cy="195" r="19"/><circle class="cls-3" cx="287" cy="140" r="22"/><circle class="cls-3" cx="413" cy="60" r="11"/><circle class="cls-3" cx="457" cy="356" r="22"/><circle class="cls-3" cx="584" cy="254" r="13"/><circle class="cls-3" cx="714" cy="179" r="22"/><circle class="cls-3" cx="663" cy="27" r="22"/><circle class="cls-3" cx="600" cy="122" r="22"/><polyline class="cls-4" points="413 60 287 144 299 286 457 356 584.5 253.5 714.5 178.5 663.5 26.5 600.5 121.5 415.5 194.5 415.5 59.5 302.5 283.5 420.5 197.5 283.5 139.5 600.5 124.5 718.5 181.5 423.5 198.5 457.5 364.5 600.5 127.5 584.5 259.5 413.5 56.5 668.63 26.5"/></g><g class="cls-2"><circle class="cls-3" cx="262" cy="555" r="16"/><circle class="cls-3" cx="191" cy="516" r="10"/><circle class="cls-3" cx="195" cy="593" r="12"/><circle class="cls-3" cx="127" cy="550" r="6"/><circle class="cls-3" cx="261" cy="461" r="12"/><circle class="cls-3" cx="182" cy="422" r="7"/><circle class="cls-3" cx="116" cy="376" r="12"/><circle class="cls-3" cx="53" cy="436" r="12"/><circle class="cls-3" cx="114" cy="445" r="12"/><polyline class="cls-4" points="126.89 550.24 196.74 592.55 263.34 554.21 261.38 461.04 182.16 422.22 115.79 375.89 53.23 435.56 114.03 444.6 192 518.25 126.08 549.13 261.32 553.08 192.32 515.12 195.34 595.29 115.5 443.92 116.34 373.25 192.13 513.43 265.42 458.85 116.97 443.23 185.09 420.85 125.07 550.79 52.06 433.06"/></g><g class="cls-2"><circle class="cls-3" cx="703" cy="1225" r="9"/><circle class="cls-3" cx="664.5" cy="1247.5" r="5.5"/><circle class="cls-3" cx="702.5" cy="1268.5" r="6.5"/><circle class="cls-3" cx="662.5" cy="1288.5" r="3.5"/><circle class="cls-3" cx="658.5" cy="1198.5" r="6.5"/><circle class="cls-3" cx="617" cy="1225" r="4"/><circle class="cls-3" cx="575.5" cy="1243.5" r="6.5"/><circle class="cls-3" cx="586.5" cy="1290.5" r="6.5"/><circle class="cls-3" cx="607.5" cy="1264.5" r="6.5"/><polyline class="cls-4" points="662.06 1288.47 702.49 1267.28 703.4 1224.34 658.26 1198.34 616.79 1225.03 575.44 1243.38 585.91 1290.57 607.8 1264.09 665.58 1248.07 661.29 1288.54 702.27 1224.97 664.17 1247.01 703.4 1268.74 607.9 1263.19 574.34 1242.36 663.3 1246.62 658.38 1195.78 607.99 1262.29 616.98 1223.23 661.8 1289.5 584 1290.4"/></g></g></g></g></svg>