<svg xmlns="http://www.w3.org/2000/svg" xmlns:xlink="http://www.w3.org/1999/xlink" viewBox="0 0 44 41"><defs><style>.cls-1,.cls-4,.cls-6{fill:#ececec;}.cls-1{clip-rule:evenodd;}.cls-2{fill:#8c8c8c;}.cls-3{fill:none;stroke:#c1c1c1;stroke-linecap:round;stroke-miterlimit:10;stroke-width:2px;}.cls-4{fill-rule:evenodd;}.cls-5{clip-path:url(#clip-path);}.cls-7{clip-path:url(#clip-path-2);}.cls-8{clip-path:url(#clip-path-3);}</style><clipPath id="clip-path" transform="translate(7)"><path class="cls-1" d="M0,13.58A3.86,3.86,0,0,1,4.09,10H25.91A3.86,3.86,0,0,1,30,13.58V31.42A3.86,3.86,0,0,1,25.91,35H4.09A3.86,3.86,0,0,1,0,31.42Z"/></clipPath><clipPath id="clip-path-2" transform="translate(7)"><circle class="cls-2" cx="15" cy="19" r="4"/></clipPath><clipPath id="clip-path-3" transform="translate(7)"><rect class="cls-2" x="13" y="21" width="4" height="8"/></clipPath></defs><g id="Layer_2" data-name="Layer 2"><g id="Login"><g id="Form"><g id="pass_icon"><path class="cls-3" d="M25,11A10,10,0,0,0,5,11" transform="translate(7)"/><path class="cls-4" d="M0,13.58A3.86,3.86,0,0,1,4.09,10H25.91A3.86,3.86,0,0,1,30,13.58V31.42A3.86,3.86,0,0,1,25.91,35H4.09A3.86,3.86,0,0,1,0,31.42Z" transform="translate(7)"/><g class="cls-5"><rect class="cls-6" y="4" width="44" height="37"/></g><circle class="cls-2" cx="22" cy="19" r="4"/><g class="cls-7"><rect class="cls-2" x="12" y="9" width="21" height="21"/></g><rect class="cls-2" x="20" y="21" width="4" height="8"/><g class="cls-8"><rect class="cls-2" x="10" y="16" width="24" height="19"/></g></g></g></g></g></svg>